<?xml version="1.0" encoding="iso-8859-1"?>
<!-- Generator: Adobe Illustrator 16.0.0, SVG Export Plug-In . SVG Version: 6.00 Build 0)  -->
<!DOCTYPE svg PUBLIC "-//W3C//DTD SVG 1.1//EN" "http://www.w3.org/Graphics/SVG/1.1/DTD/svg11.dtd">
<svg xmlns="http://www.w3.org/2000/svg" xmlns:xlink="http://www.w3.org/1999/xlink" version="1.1" id="Capa_1" x="0px" y="0px" width="512px" height="512px" viewBox="0 0 588.157 588.158" style="enable-background:new 0 0 588.157 588.158;" xml:space="preserve">
<g>
	<g id="Layer_1_131_">
		<g>
			<path d="M532.858,148.283c8.925-11.475,7.65-26.775-3.825-35.7L404.084,11.858c-14.025-11.475-31.875-14.025-48.45-10.2     c-16.575,5.1-30.601,16.575-35.7,33.15l-33.15,94.35h-183.6c-15.3,0-29.325,6.375-39.525,17.85     c-10.2,10.2-15.3,25.5-14.025,39.525l21.675,351.9c1.275,28.05,25.5,49.725,53.55,49.725h189.975c28.05,0,51-21.675,53.55-49.725     l21.675-351.9c1.275-14.025-3.825-29.325-14.025-39.525c-8.925-10.2-21.675-15.3-35.699-16.575l28.05-79.05     c0-1.275,1.274-1.275,1.274-1.275c1.275,0,1.275,0,2.551,0l124.949,100.725C507.358,159.758,523.934,158.483,532.858,148.283z      M170.759,319.132c0-14.024,11.475-26.774,26.775-26.774c11.475,0,21.675,7.649,24.225,17.85l-2.55,10.2L170.759,319.132     C170.759,320.408,170.759,320.408,170.759,319.132z M231.959,280.883c-8.925-8.925-21.675-14.025-35.7-14.025     c-28.05,0-52.275,22.95-52.275,52.274v1.275h-35.7l-3.825-58.65c7.65,5.1,17.85,7.65,28.05,7.65     c28.05,0,52.275-24.225,52.275-52.275c0-14.025-5.1-24.225-15.3-36.975h98.175L231.959,280.883z M159.284,217.133     c0,14.025-11.475,26.775-26.775,26.775c-15.3,0-26.775-11.475-26.775-26.775c0-15.3,11.475-26.775,26.775-26.775     C147.809,190.358,159.284,203.108,159.284,217.133z M336.509,180.158c1.274,0,1.274,1.275,1.274,1.275s1.275,1.275,0,2.55     l-6.375,136.425h-58.649l49.724-140.25H336.509z" fill="#00d9c7"/>
			<path d="M197.534,116.408c28.05,0,52.275-22.95,52.275-52.275c0-29.325-22.95-52.275-52.275-52.275     c-29.325,0-52.275,22.95-52.275,52.275C145.259,93.458,168.209,116.408,197.534,116.408z M197.534,38.633     c14.025,0,26.775,11.475,26.775,26.775s-12.75,25.5-26.775,25.5s-26.775-11.475-26.775-26.775     C170.759,48.833,182.234,38.633,197.534,38.633z" fill="#00d9c7"/>
		</g>
	</g>
</g>
<g>
</g>
<g>
</g>
<g>
</g>
<g>
</g>
<g>
</g>
<g>
</g>
<g>
</g>
<g>
</g>
<g>
</g>
<g>
</g>
<g>
</g>
<g>
</g>
<g>
</g>
<g>
</g>
<g>
</g>
</svg>
